<svg xmlns="http://www.w3.org/2000/svg" fill="#2D469C" viewBox="0 0 170 34.39">
<path d="M7.12,31.29A15.36,15.36,0,0,1,3.84,10.07a7.18,7.18,0,0,0,3.28,3.15Z" transform="translate(-0.97 -1.55)"/><path d="M31.67,19A15.35,15.35,0,0,1,7.12,31.29h6.1V13.22a7.16,7.16,0,0,0,3.4-9.56,15.35,15.35,0,0,1,13.77,9.2H14.29v4h5.13V31.28h6.1V16.88h6A15.47,15.47,0,0,1,31.67,19Z" transform="translate(-0.97 -1.55)"/><circle cx="9.22" cy="5.12" r="5.12"/><path d="M46,16.45c-7.38,0-8.2,5.65-8.2,7.65s.73,7.47,9,7.47a14.18,14.18,0,0,0,5.83-1.18V26.84h-.55a9.25,9.25,0,0,1-4.74,1.55c-2.73,0-5-1-5-3.55,3.28,0,9.48.09,10.57.09C53.22,21.1,52.22,16.45,46,16.45Zm2.37,5.83h-6a3.08,3.08,0,0,1,3.1-2.92A2.59,2.59,0,0,1,48.39,22.28Z" transform="translate(-0.97 -1.55)"/><path d="M69.16,24.1v7.11H64.61s0-5.74,0-7.26-.09-2.67-1-3.31c-1.17-.82-3.28-.27-4.28.59v10H54.86V17h4.46v1.48c3.1-2.48,6.41-2.52,8.29-.75C69,19,69.16,20.37,69.16,24.1Z" transform="translate(-0.97 -1.55)"/><path d="M76.45,20v5.74c0,4.1,3.64,2.28,3.92,2.28h.36v3c-2.08.66-5.28.78-7-.36a4.36,4.36,0,0,1-1.82-3.74V20H70V18.18l6.47-3.92v2.64h4.28V20Z" transform="translate(-0.97 -1.55)"/><path d="M88.84,16.45c-5.74,0-8.11,3.83-8.11,7.47s1.55,7.65,8.93,7.65a14.18,14.18,0,0,0,5.83-1.18V26.84h-.55a9.25,9.25,0,0,1-4.74,1.55c-2.73,0-4.92-1-4.92-3.55,3.28,0,9.38.09,10.48.09C96,21.1,95,16.45,88.84,16.45Zm2.37,5.83H85.29a2.86,2.86,0,0,1,3-2.92A2.59,2.59,0,0,1,91.21,22.28Z" transform="translate(-0.97 -1.55)"/><path d="M164,16.45c-5.74,0-8.11,3.83-8.11,7.47s1.55,7.65,8.93,7.65a14.18,14.18,0,0,0,5.83-1.18V26.84h-.55a9.25,9.25,0,0,1-4.74,1.55c-2.73,0-4.92-1-4.92-3.55,3.28,0,9.38.09,10.48.09C171.2,21.1,170.2,16.45,164,16.45Zm2.37,5.83h-5.92a2.86,2.86,0,0,1,3-2.92A2.59,2.59,0,0,1,166.37,22.28Z" transform="translate(-0.97 -1.55)"/><path d="M117,16.54a7.73,7.73,0,0,0-4.37,2V16.91h-4.56a7.85,7.85,0,0,0-5.83,2.1v-2.1H97.68v14.3h4.56v-9.5c1.73-1.25,4.56-1.8,5.83-.89V35.95h4.56V30.51a9.45,9.45,0,0,0,3.83,1.06c2.73,0,6.47-2.19,6.47-7.47S120.55,16.36,117,16.54Zm-2.55,11.75a7,7,0,0,1-1.82-.21V20.73a6.12,6.12,0,0,1,2.6-.73c1.78,0,3.05.91,3.05,4S116.63,28.29,114.44,28.29Z" transform="translate(-0.97 -1.55)"/><path d="M139.59,16.91v14.3h-4.65V20.82c-1.28-.91-4.1-.36-5.83.89v9.5h-4.56V16.91h4.56V19a7.85,7.85,0,0,1,5.83-2.1Z" transform="translate(-0.97 -1.55)"/><rect x="133.97" y="8.15" width="4.65" height="3.64"/><path d="M154.07,17.63v3.55h-.36A7.73,7.73,0,0,0,149,19.55c-1.18,0-2.92.27-2.92,1.28,0,1.18,2.73,1.28,4.65,1.73,1.55.36,3.83,1.09,4,4,.24,3.91-4.19,5.1-7.29,5.1a15.85,15.85,0,0,1-6.1-1.18V26.65h.46a8.46,8.46,0,0,0,5.28,1.91c2.46,0,3-.46,3-1.18,0-.91-1.28-1.21-3.64-1.55-1.91-.27-5-1.49-5-4.56a4.4,4.4,0,0,1,2.73-3.83,11.68,11.68,0,0,1,4.83-.91A10.17,10.17,0,0,1,154.07,17.63Z" transform="translate(-0.97 -1.55)"/></svg>
