<svg viewBox="0 0 357 76" xmlns="http://www.w3.org/2000/svg">
    <path d="M17 67.17v-55a50.61 50.61 0 0 1 6.88.1c.84.12 1.86 1.29 2.22 2.2 3.24 8.25 6.35 16.56 9.72 25.43l10.49-27.55h8.29v54.82h-8.3V36.9l-.65-.13-4.8 12.64a25.38 25.38 0 0 0-1.25 3.36c-.48 2.16-1.73 2.64-3.85 2.71s-2.89-1-3.52-2.74c-1.94-5.32-4-10.6-6.46-15.9v30.33zM341 67.07a4.68 4.68 0 0 1-.64.22c-8 .56-8 .55-10.32-7l-4.95-15.59h-3.94v22.45h-8.5V11.92c6 .32 11.95.21 17.78 1.11 4.44.68 7.2 4.12 8.3 8.54a24.75 24.75 0 0 1-.49 14.75 12.06 12.06 0 0 1-3.53 5c-1.61 1.3-1.61 2.37-1 4 2.41 7.2 4.78 14.38 7.29 21.75zm-19.75-46.58v15.82c3.3-.19 6.91.92 8.66-2.81s1.79-7.45-.46-10.87c-1.97-3-5.16-2.26-8.2-2.14zM84.72 67.2l11.1-54.91h9.62l11.16 54.87h-8.77l-2.2-11h-10L93.5 67.2zm19.55-19.61l-3.44-21.73-.47.05L97 47.59zM265.75 20.22v14.86h13.57v8.25h-13.51v15.81h15.53v8H257V12.35h24.22v7.86zM145.81 54.36l8.06-1.53c.33 1.4.56 2.56.88 3.69.68 2.42 2.38 3.22 4.78 3.14a4 4 0 0 0 4.23-3.47 31.76 31.76 0 0 0 .39-6.25 6.34 6.34 0 0 0-4.14-6 66.14 66.14 0 0 1-7-3.44c-7.95-4.71-9.9-17.68-3.79-24.67 3.41-3.89 10.12-5.25 15.83-3.19 4.8 1.73 7.55 5.94 7.66 12.11l-8.27 2.06c-.23-1.14-.42-2.17-.65-3.19a4.19 4.19 0 0 0-4.4-3.62c-2.56-.06-3.89 1.37-4.54 3.55-1.52 5.07.06 8.47 4.9 10.73 1.89.89 3.86 1.63 5.74 2.56 4.15 2.06 6.84 5.39 7.05 10a53.29 53.29 0 0 1-.65 12.16c-.92 4.86-4.29 7.85-9.29 8.45a26.4 26.4 0 0 1-7.42-.07c-6.38-1.04-9.99-6.12-9.37-13.02zM218.41 20.29v46.92h-8.56V20.5h-8.75v-8.12h26.07v7.92z"></path>
</svg>
