<svg xmlns="http://www.w3.org/2000/svg" xmlns:xlink="http://www.w3.org/1999/xlink" viewBox="0 0 116.4 109.63"><defs><style>.a{fill:url(#a);}.b{fill:url(#b);}.c{fill:#e8e8e8;}.d{fill:#bebfc2;}.e{fill:#cdcdcd;}.f{fill:url(#c);}</style><linearGradient id="a" x1="102.55" y1="22.56" x2="102.55" y2="115.56" gradientTransform="translate(174.83 124.72) rotate(180)" gradientUnits="userSpaceOnUse"><stop offset="0" stop-color="#cdcdcd"/><stop offset="1" stop-color="#cdcdcd"/></linearGradient><linearGradient id="b" x1="44.77" y1="115.7" x2="44.77" y2="22.7" gradientTransform="matrix(0.98, -0.21, -0.21, -0.98, 15.46, 128.79)" gradientUnits="userSpaceOnUse"><stop offset="0" stop-color="#e0e0e0"/><stop offset="1" stop-color="#c9cbcc"/></linearGradient><linearGradient id="c" x1="64.3" y1="108.1" x2="64.3" y2="15.1" gradientTransform="matrix(1, 0, 0, -1, -1.77, 124.72)" gradientUnits="userSpaceOnUse"><stop offset="0" stop-color="#e7e7e7"/><stop offset="1" stop-color="#d1d4d5"/></linearGradient></defs><path class="a" d="M53.78,102h48a8,8,0,0,0,8-8V17a8,8,0,0,0-8-8h-59a8,8,0,0,0-8,8V83Z"/><path class="b" d="M87.26,70.9,73.54,6.34A8,8,0,0,0,64,.18L6.34,12.44A8,8,0,0,0,.18,21.93l16,75.32a8,8,0,0,0,9.49,6.16l47-10Z"/><polygon class="c" points="68.67 74.85 87.26 70.9 72.63 93.43 68.67 74.85"/><polygon class="d" points="54.53 97.28 68.67 74.85 72.63 93.43 54.53 97.28"/><rect class="e" x="12.74" y="21.28" width="54" height="8" transform="translate(-4.39 8.81) rotate(-12)"/><rect class="e" x="15.86" y="35.95" width="54" height="8" transform="translate(-7.37 9.78) rotate(-12)"/><rect class="e" x="18.97" y="50.62" width="54" height="8" transform="translate(-10.35 10.75) rotate(-12)"/><path class="f" d="M100,90.63v-66a8,8,0,0,0-8-8H33a8,8,0,0,0-8,8v77a8,8,0,0,0,8,8H81Z"/><polygon class="c" points="81.03 90.63 100.03 90.63 81.03 109.63 81.03 90.63"/><polygon class="d" points="62.53 109.63 81.03 90.63 81.03 109.63 62.53 109.63"/><rect class="e" x="36.03" y="32.13" width="7.44" height="8"/><rect class="e" x="50.63" y="32.13" width="17.34" height="8"/><rect class="e" x="75.13" y="32.13" width="14.9" height="8"/><rect class="e" x="36.03" y="47.13" width="7.44" height="8"/><rect class="e" x="50.63" y="47.13" width="17.34" height="8"/><rect class="e" x="75.13" y="47.13" width="14.9" height="8"/><rect class="e" x="36.03" y="62.13" width="7.44" height="8"/><rect class="e" x="50.63" y="62.13" width="17.34" height="8"/><rect class="e" x="75.13" y="62.13" width="14.9" height="8"/></svg>