<svg xmlns="http://www.w3.org/2000/svg" viewBox="0 0 186 39.67"><title>it-logo-color</title><path d="M12.33,1.88a5.4,5.4,0,1,1-5.4,5.4,5.41,5.41,0,0,1,5.4-5.4Z" style="fill:#7bc043;fill-rule:evenodd"/><path d="M5.64,10.81A16.16,16.16,0,0,0,9.09,33.2V14.11a7.64,7.64,0,0,1-3.44-3.3ZM9.11,33.21a16.15,16.15,0,0,0,19.41,0H22.05V18.08h-5.4V13.76h17A16.25,16.25,0,0,0,19.16,4a7.56,7.56,0,0,1-3.59,10.07v19.1Zm19.43,0a16.2,16.2,0,0,0,6.48-13,16,16,0,0,0-.15-2.16H28.53V33.2Z" style="fill:#00498f;fill-rule:evenodd"/><path d="M62.52,14.05a2.78,2.78,0,0,1-1.2.32,1.76,1.76,0,0,1-1.84-2,1.8,1.8,0,0,1,1.84-2,2.68,2.68,0,0,1,1.2.31v.7h0a2,2,0,0,0-1.2-.47c-.83,0-1.16.68-1.16,1.42s.33,1.4,1.16,1.4a2,2,0,0,0,1.2-.46h0v.7Zm4-1.64a1.75,1.75,0,1,1-3.46,0,1.75,1.75,0,1,1,3.46,0Zm-.65,0c0-.71-.25-1.43-1.08-1.43s-1.08.72-1.08,1.43.26,1.43,1.08,1.43,1.08-.73,1.08-1.43Zm4-1.19h0a2.54,2.54,0,0,0-.59-.06,1.77,1.77,0,0,0-1.09.46v2.66h-.63V10.54h.63v.55a2.05,2.05,0,0,1,1.25-.55,2.83,2.83,0,0,1,.46,0v.65Zm3.62,1.14a1.81,1.81,0,0,1-1.66,2,2.06,2.06,0,0,1-1-.26v1.57h-.63V10.54h.63v.39a2,2,0,0,1,1.23-.5c1.08,0,1.43,1,1.43,1.93Zm-.65,0c0-.64-.17-1.35-.94-1.35a1.84,1.84,0,0,0-1.07.43v2.13a2.1,2.1,0,0,0,.9.21c.82,0,1.12-.68,1.12-1.41Zm4.83,0a1.75,1.75,0,1,1-3.46,0,1.75,1.75,0,1,1,3.46,0Zm-.65,0c0-.71-.25-1.43-1.08-1.43s-1.08.72-1.08,1.43.26,1.43,1.08,1.43S77,13.11,77,12.41Zm4-1.19h0a2.53,2.53,0,0,0-.59-.06,1.76,1.76,0,0,0-1.09.46v2.66h-.63V10.54h.63v.55a2,2,0,0,1,1.25-.55,2.85,2.85,0,0,1,.46,0v.65Zm3.25,3.06h-.63v-.4a2.21,2.21,0,0,1-1.34.5A1.18,1.18,0,0,1,81,13.2c0-.91.74-1.22,1.53-1.31.32,0,.66-.06,1-.08v-.1c0-.61-.51-.71-1-.71a3.42,3.42,0,0,0-1.19.26h0v-.64a4.82,4.82,0,0,1,1.22-.17c.89,0,1.63.29,1.63,1.3v2.55Zm-.63-.92v-1l-.68.05c-.5,0-1.23.14-1.23.79,0,.48.36.65.79.65a1.84,1.84,0,0,0,1.12-.44Zm3.79.89a3,3,0,0,1-.76.11c-.82,0-1.17-.52-1.17-1.3v-2H85v-.53h.43V9.46h.63v1.08h1.3v.53h-1.3v1.71c0,.57,0,1,.71,1a1.65,1.65,0,0,0,.56-.12h0v.57Zm3.9-1.78H88.52a1.25,1.25,0,0,0,1.33,1.35,2.18,2.18,0,0,0,1.32-.45h0v.69a3.51,3.51,0,0,1-1.35.32,1.82,1.82,0,0,1-2-1.94,1.82,1.82,0,0,1,1.82-2,1.52,1.52,0,0,1,1.58,1.7v.34ZM90.66,12a.93.93,0,0,0-1-1,1.11,1.11,0,0,0-1.15,1Zm10.39,2.29h-.63V12.15c0-.59,0-1.12-.75-1.12a1.87,1.87,0,0,0-1.06.47,3.35,3.35,0,0,1,0,.39v2.4H98V12.15c0-.59,0-1.12-.75-1.12a1.8,1.8,0,0,0-1,.45v2.8h-.63V10.54h.63V11a1.92,1.92,0,0,1,1.21-.52,1.09,1.09,0,0,1,1,.61,2.13,2.13,0,0,1,1.38-.61c.86,0,1.2.63,1.2,1.42v2.43Zm4.13,0h-.62v-.4a2.22,2.22,0,0,1-1.35.5A1.18,1.18,0,0,1,102,13.2c0-.91.74-1.22,1.53-1.31.32,0,.67-.06,1-.08v-.1c0-.61-.51-.71-1-.71a3.41,3.41,0,0,0-1.18.26h0v-.64a4.82,4.82,0,0,1,1.22-.17c.89,0,1.63.29,1.63,1.3v2.55Zm-.62-.92v-1l-.68.05c-.5,0-1.23.14-1.23.79,0,.48.36.65.79.65a1.86,1.86,0,0,0,1.12-.44Zm5,.92h-.63V12.15c0-.6-.07-1.12-.79-1.12a1.87,1.87,0,0,0-1.08.45v2.8h-.63V10.54H107V11a2,2,0,0,1,1.25-.52c.87,0,1.25.62,1.25,1.42v2.43Zm4.13,0H113v-.4a2.2,2.2,0,0,1-1.34.5,1.18,1.18,0,0,1-1.21-1.19c0-.91.74-1.22,1.53-1.31.32,0,.66-.06,1-.08v-.1c0-.61-.51-.71-1-.71a3.43,3.43,0,0,0-1.19.26h0v-.64a4.79,4.79,0,0,1,1.22-.17c.89,0,1.63.29,1.63,1.3v2.55Zm-.63-.92v-1l-.68.05c-.5,0-1.23.14-1.23.79,0,.48.36.65.79.65a1.84,1.84,0,0,0,1.12-.44Zm4.89.5a1.61,1.61,0,0,1-1.77,1.84,4.27,4.27,0,0,1-1.14-.16V14.9h0a3.33,3.33,0,0,0,1.16.24c.7,0,1.08-.32,1.08-1v-.34a1.81,1.81,0,0,1-1.21.45c-1.05,0-1.46-.93-1.46-1.85a1.78,1.78,0,0,1,1.66-1.94,2,2,0,0,1,1,.27l0-.16h.59v3.32Zm-.63-.61v-2a2.14,2.14,0,0,0-.9-.21c-.8,0-1.12.65-1.12,1.36s.19,1.28,1,1.28a1.78,1.78,0,0,0,1.06-.39Zm5-.78h-2.76a1.25,1.25,0,0,0,1.33,1.35,2.17,2.17,0,0,0,1.32-.45h0v.69a3.49,3.49,0,0,1-1.35.32,1.82,1.82,0,0,1-2-1.94,1.82,1.82,0,0,1,1.82-2,1.52,1.52,0,0,1,1.58,1.7v.34ZM121.7,12a.93.93,0,0,0-1-1,1.11,1.11,0,0,0-1.15,1Zm7,2.29h-.63V12.15c0-.59,0-1.12-.75-1.12a1.85,1.85,0,0,0-1.06.47c0,.13,0,.25,0,.39v2.4h-.63V12.15c0-.59,0-1.12-.75-1.12a1.8,1.8,0,0,0-1,.45v2.8h-.63V10.54h.63V11a1.94,1.94,0,0,1,1.22-.52,1.1,1.1,0,0,1,1,.61,2.12,2.12,0,0,1,1.37-.61c.86,0,1.2.63,1.2,1.42v2.43Zm4.35-1.81h-2.76a1.25,1.25,0,0,0,1.33,1.35,2.18,2.18,0,0,0,1.32-.45h0v.69a3.5,3.5,0,0,1-1.35.32,1.81,1.81,0,0,1-2-1.94,1.82,1.82,0,0,1,1.82-2,1.52,1.52,0,0,1,1.58,1.7v.34Zm-.61-.48a.93.93,0,0,0-1-1,1.11,1.11,0,0,0-1.15,1Zm4.71,2.29h-.63V12.15c0-.6-.07-1.12-.79-1.12a1.89,1.89,0,0,0-1.08.45v2.8h-.63V10.54h.63V11a2,2,0,0,1,1.26-.52c.86,0,1.25.62,1.25,1.42v2.43Zm3.16,0a3,3,0,0,1-.76.11c-.82,0-1.17-.52-1.17-1.3v-2H138v-.53h.43V9.46h.63v1.08h1.3v.53h-1.3v1.71c0,.57,0,1,.71,1a1.65,1.65,0,0,0,.56-.12h0v.57Zm15.37-1c0,.85-.86,1.17-1.58,1.17a3,3,0,0,1-1.35-.32v-.71h0a2.36,2.36,0,0,0,1.37.49c.37,0,.89-.08.89-.56s-.31-.46-.61-.53-.5-.09-.75-.16c-.52-.14-.91-.43-.91-1,0-.81.82-1.15,1.51-1.15a2.82,2.82,0,0,1,1.25.28v.67h0a2.24,2.24,0,0,0-1.27-.42c-.33,0-.82.11-.82.53s.3.47.6.54l.75.15a1,1,0,0,1,.92,1Zm4.15-2.67-2.19,5.13H157l.7-1.56-1.49-3.57h.69L158,13.32l1.16-2.78Zm3.51,2.67c0,.85-.86,1.17-1.58,1.17a3.06,3.06,0,0,1-1.35-.32v-.71h0a2.37,2.37,0,0,0,1.37.49c.37,0,.88-.08.88-.56s-.31-.46-.62-.53-.5-.09-.74-.16c-.52-.14-.91-.43-.91-1,0-.81.82-1.15,1.51-1.15a2.81,2.81,0,0,1,1.25.28v.67h0a2.23,2.23,0,0,0-1.26-.42c-.33,0-.82.11-.82.53s.3.47.6.54l.75.15a1,1,0,0,1,.92,1Zm2.85,1a3,3,0,0,1-.76.11c-.82,0-1.17-.52-1.17-1.3v-2h-.43v-.53h.43V9.46h.63v1.08h1.3v.53h-1.3v1.71c0,.57,0,1,.7,1a1.66,1.66,0,0,0,.57-.12h0v.57Zm3.9-1.78h-2.76a1.25,1.25,0,0,0,1.33,1.35,2.18,2.18,0,0,0,1.32-.45h0v.69a3.52,3.52,0,0,1-1.35.32,1.81,1.81,0,0,1-2-1.94,1.82,1.82,0,0,1,1.82-2,1.52,1.52,0,0,1,1.58,1.7v.34Zm-.61-.48a.93.93,0,0,0-1-1,1.1,1.1,0,0,0-1.15,1Zm7,2.29h-.63V12.15c0-.59,0-1.12-.75-1.12a1.85,1.85,0,0,0-1.06.47,3.58,3.58,0,0,1,0,.39v2.4h-.63V12.15c0-.59,0-1.12-.75-1.12a1.79,1.79,0,0,0-1,.45v2.8h-.63V10.54h.63V11a1.92,1.92,0,0,1,1.22-.52,1.1,1.1,0,0,1,1,.61,2.12,2.12,0,0,1,1.37-.61c.86,0,1.2.63,1.2,1.42v2.43Z" style="fill:#00498f;fill-rule:evenodd"/><path d="M57.5,26.55H46.4c.17,2.8,2.56,3.66,5,3.66a9.12,9.12,0,0,0,5.26-1.74h.54v3.89a16.64,16.64,0,0,1-6.32,1.25c-5.09,0-9.4-2.29-9.4-7.88,0-5.13,3.62-8.12,8.59-8.12,4.63,0,7.41,2.55,7.41,7.24v1.7ZM149,33.21h-4.85v-11a7.31,7.31,0,0,0-6.09.91V33.21h-4.85V18.08H138v2.22a7.74,7.74,0,0,1,6.12-2.22H149V33.21ZM165,28.42c0,4.06-4.61,5.21-7.85,5.21a15.33,15.33,0,0,1-6.3-1.21v-4h.44a10.4,10.4,0,0,0,6,2c.81,0,2.8,0,2.8-1.26,0-1-1.2-1.13-1.94-1.28-1-.24-2.1-.33-3.14-.61-2.28-.6-4.06-2-4.06-4.51,0-3.9,4.63-5.08,7.72-5.08a14.32,14.32,0,0,1,5.68,1.08v3.82h-.42a9.43,9.43,0,0,0-5.25-1.67c-.74,0-2.77.13-2.77,1.24s1.27,1.22,2.07,1.39c1.1.21,2.22.37,3.31.64,2.16.56,3.74,1.89,3.74,4.25Zm17.17-1.87h-11.1c.17,2.8,2.56,3.66,5,3.66a9.11,9.11,0,0,0,5.25-1.74h.54v3.89a16.64,16.64,0,0,1-6.32,1.25c-5.09,0-9.4-2.29-9.4-7.88,0-5.13,3.62-8.12,8.59-8.12,4.63,0,7.41,2.55,7.41,7.24v1.7Zm-4.82-2.84c0-1.92-1-3.06-3-3.06a3,3,0,0,0-3.31,3.06Zm-45.9,1.74c0,4.06-2.48,8.06-6.9,8.06a8.32,8.32,0,0,1-4-1v5.75H115.7v-16c-1.83-.84-4.25-.23-6.08.91V33.21h-4.85V18.08h4.85v2.22a7.74,7.74,0,0,1,6.11-2.22h4.82v1.58a7.83,7.83,0,0,1,5-2c4.38,0,6,4,6,7.77Zm-5,.09c0-2.2-.59-4.21-3.14-4.21a5.55,5.55,0,0,0-2.8.81v7.61a5.91,5.91,0,0,0,2.13.3c2.79,0,3.81-2,3.81-4.51ZM52.67,23.7c0-1.92-1-3.06-3-3.06a3,3,0,0,0-3.31,3.06Zm22,9.51H69.78v-7.5c0-2.17,0-4.12-2.65-4.12a5.58,5.58,0,0,0-2.82.9V33.21H59.46V18.08h4.85v1.67a8.24,8.24,0,0,1,5.13-2.09c3.5,0,5.22,2.36,5.22,5.7v9.85Zm28.14-6.66H91.7c.17,2.8,2.56,3.66,5,3.66A9.12,9.12,0,0,0,102,28.47h.54v3.89a16.64,16.64,0,0,1-6.32,1.25c-5.08,0-9.4-2.29-9.4-7.88,0-5.13,3.62-8.12,8.59-8.12,4.63,0,7.41,2.55,7.41,7.24v1.7ZM98,23.7c0-1.92-1-3.06-3-3.06a3,3,0,0,0-3.32,3.06ZM86.9,33.08a15.25,15.25,0,0,1-3.8.43c-3.49,0-5.59-1.39-5.59-5.06V21.37h-2v-2l6.84-4.13v2.82H86.9v3.29H82.36v5.36c0,1.84-.05,3.48,2.29,3.48a4.26,4.26,0,0,0,1.85-.46h.4v3.33ZM144.1,10.54h4.85v3.78H144.1V10.54Z" style="fill:#00498f;fill-rule:evenodd"/></svg>