<?xml version="1.0" encoding="UTF-8" standalone="no"?>
<svg xmlns:rdf="http://www.w3.org/1999/02/22-rdf-syntax-ns#" xmlns="http://www.w3.org/2000/svg" height="48"
     viewBox="0 0 38.4 38.4" width="48" version="1.0" xmlns:cc="http://creativecommons.org/ns#"
     xmlns:dc="http://purl.org/dc/elements/1.1/" preserveAspectRatio="xMidYMid meet">
    <g transform="matrix(.018151 0 0 -.016972 1.9294 35.587)" fill="#765ffc">
        <path d="m493 1892c-141-50-224-191-195-330 61-292 467-326 571-48 26 71 27 130 1 199-57 151-228 232-377 179z"/>
        <path d="m991 1729c32-102 19-224-32-315-30-52-105-130-151-156l-38-22v-518-518h-172l-173-1 30-25c46-38 182-100 270-123 155-41 333-37 484 10 78 23 197 82 237 115l29 24-175-1-175-1-3 411-2 411h-145-145v120 120h465 465l-21 43c-101 198-292 364-505 437-46 16-217 50-255 50-4 0 2-27 12-61z"/>
        <path d="m186 1348c-86-155-116-269-116-444 0-188 50-353 153-504 36-53 130-154 170-182l27-19v518 519l-38 22c-41 23-142 124-142 141 0 27-22 6-54-51z"/>
        <path d="m1480 609v-411l39 32c90 70 179 189 236 313 52 113 66 178 72 335l6 142h-177-176v-411z"/>
    </g>
</svg>
